<svg width="26" height="26" viewBox="0 0 26 26" fill="none" xmlns="http://www.w3.org/2000/svg">
<path d="M19.4349 19.435C17.5831 20.8466 15.3281 21.6286 12.9999 21.6667C5.41659 21.6667 1.08325 13 1.08325 13C2.4308 10.4887 4.29982 8.29465 6.56492 6.565M10.7249 4.59333C11.4706 4.41878 12.2341 4.33153 12.9999 4.33333C20.5833 4.33333 24.9166 13 24.9166 13C24.259 14.2302 23.4747 15.3885 22.5766 16.4558M15.2966 15.2967C14.9991 15.616 14.6402 15.8721 14.2416 16.0497C13.8429 16.2273 13.4126 16.3229 12.9762 16.3306C12.5398 16.3383 12.1063 16.258 11.7017 16.0945C11.297 15.9311 10.9294 15.6878 10.6208 15.3792C10.3121 15.0705 10.0688 14.7029 9.90539 14.2983C9.74193 13.8936 9.66166 13.4601 9.66936 13.0237C9.67705 12.5874 9.77257 12.157 9.9502 11.7583C10.1278 11.3597 10.3839 11.0009 10.7033 10.7033M1.08325 1.08333L24.9166 24.9167" stroke="#243A66" stroke-width="2" stroke-linecap="round" stroke-linejoin="round"/>
</svg>
