<svg width="26" height="25" viewBox="0 0 26 25" fill="none" xmlns="http://www.w3.org/2000/svg">
<path d="M23.1499 3.17314C22.5634 2.55653 21.8672 2.06739 21.1008 1.73367C20.3345 1.39995 19.5131 1.22818 18.6835 1.22818C17.854 1.22818 17.0326 1.39995 16.2663 1.73367C15.4999 2.06739 14.8037 2.55653 14.2172 3.17314L13.0002 4.45222L11.7831 3.17314C10.5986 1.92822 8.99201 1.22883 7.31682 1.22883C5.64162 1.22883 4.03504 1.92822 2.8505 3.17314C1.66596 4.41806 1.00049 6.10654 1.00049 7.86713C1.00049 9.62772 1.66596 11.3162 2.8505 12.5611L13.0002 23.2282L23.1499 12.5611C23.7366 11.9448 24.202 11.213 24.5195 10.4076C24.837 9.60221 25.0005 8.73894 25.0005 7.86713C25.0005 6.99532 24.837 6.13205 24.5195 5.32664C24.202 4.52123 23.7366 3.78946 23.1499 3.17314Z" fill="#C3D4F0" stroke="#C3D4F0" stroke-width="2" stroke-linecap="round" stroke-linejoin="round"/>
</svg>
