<svg width="40" height="40" viewBox="0 0 40 40" fill="none" xmlns="http://www.w3.org/2000/svg">
<path d="M20 40C31.0457 40 40 31.0457 40 20C40 8.9543 31.0457 0 20 0C8.9543 0 0 8.9543 0 20C0 31.0457 8.9543 40 20 40Z" fill="#D9E7F7"/>
<path d="M30.0844 31.6063C30.9244 31.6063 31.6059 30.9248 31.6059 30.0848V27.3811C31.6059 26.9233 31.4996 26.4781 31.3033 26.0778C31.1077 25.6774 30.8207 25.3207 30.4585 25.0396L27.4629 22.5259L25.8985 21.2133L25.8414 21.1652C25.6689 21.0211 25.5329 20.8418 25.4403 20.643C25.3474 20.4441 25.2977 20.2252 25.2977 19.9996C25.2977 19.7741 25.3474 19.5552 25.4403 19.3563C25.5333 19.1574 25.6692 18.9781 25.8414 18.8341L25.8985 18.7859L27.4629 17.4733L30.4585 14.9596C30.8207 14.6785 31.1077 14.3222 31.3033 13.9215C31.5 13.5211 31.6059 13.0759 31.6059 12.6181V9.91444C31.6059 9.07444 30.9244 8.39296 30.0844 8.39296H20.0926V8.3937C20.0618 8.39296 20.0311 8.39296 20.0007 8.39296C13.5911 8.39296 8.39441 13.5889 8.39441 19.9993C8.39441 26.4096 13.5911 31.6056 20.0007 31.6056C20.0314 31.6056 20.0622 31.6056 20.0926 31.6048V31.6056H30.0844V31.6063ZM20.0926 27.8752C15.7433 27.8752 12.1252 24.3493 12.1252 20C12.1252 15.6507 15.7433 12.1248 20.0926 12.1248H27.8751C27.8751 12.2085 27.8377 12.2889 27.7733 12.343L25.8989 13.9156L25.4377 14.3018L21.144 17.9059C20.8696 18.1356 20.5229 18.2615 20.1659 18.2615H15.8018C14.9618 18.2615 14.2803 18.943 14.2803 19.783V20.2174C14.2803 21.0574 14.9618 21.7389 15.8018 21.7389H20.1659C20.5233 21.7389 20.8696 21.8648 21.144 22.0944L25.4377 25.6985L25.8989 26.0848L27.7733 27.6574C27.8381 27.7115 27.8751 27.7919 27.8751 27.8756H20.0926V27.8752Z" fill="#A4BEE2"/>
</svg>
