<svg width="16" height="16" viewBox="0 0 16 16" fill="none" xmlns="http://www.w3.org/2000/svg">
<path d="M1.55576 15.7414C1.247 15.7414 0.930894 15.6545 0.695649 15.4951C0.364837 15.2705 0.136943 14.9227 0.0854832 14.5532C0.0266721 14.1113 0.151647 13.7417 0.497162 13.4085L5.98865 8.01811L0.460405 2.56254C0.181053 2.28723 0.0413745 1.92497 0.0707801 1.54098C0.100186 1.13526 0.320728 0.758512 0.666243 0.504933C0.908839 0.338295 1.18084 0.251354 1.46019 0.251354C1.90127 0.251354 2.35706 0.461462 2.74668 0.845453L8.01028 6.03295L13.612 0.548404C13.8767 0.294825 14.2589 0.251354 14.4648 0.251354C14.6265 0.251354 14.7882 0.273089 14.9353 0.31656C15.494 0.475953 15.7954 0.93964 15.8836 1.2874C15.9718 1.62068 16.0086 2.13508 15.3984 2.73643L10.0393 8.01087L15.6925 13.5968C15.9865 13.8939 15.9645 14.43 15.8468 14.8068C15.7366 15.169 15.4278 15.4878 15.0382 15.6327C14.8471 15.7052 14.6633 15.7414 14.4868 15.7414C14.0752 15.7414 13.6782 15.553 13.3106 15.1908L8.02498 9.99603L2.45263 15.4299C2.23944 15.64 1.92333 15.7486 1.57046 15.7486L1.55576 15.7414Z" fill="#A4BEE2"/>
</svg>
