<svg width="20" height="20" viewBox="0 0 20 20" fill="none" xmlns="http://www.w3.org/2000/svg">
<path d="M10.0021 3.86332C13.143 3.86332 15.5156 5.18248 17.0926 6.49683C18.6585 7.80206 19.4925 9.14283 19.6074 9.33869L20 10.0072L19.6005 10.6723C19.4457 10.9304 16.2658 16.1367 10.0021 16.1367C3.73836 16.1367 0.558434 10.9304 0.403615 10.6723L0 9.99966L0.403615 9.32765C0.558275 9.0699 3.73819 3.86332 10.0021 3.86332ZM10.0021 6.47682C6.38541 6.47682 4.07107 8.81048 3.12681 9.99966C4.07086 11.1887 6.385 13.5232 10.0021 13.5232C13.6196 13.5232 15.9335 11.1879 16.8773 9.99897C16.8692 9.98876 16.8615 9.9776 16.8532 9.96723C16.525 9.55746 16.0457 9.0271 15.4188 8.50455C14.1657 7.46013 12.365 6.47682 10.0021 6.47682Z" fill="#A4BEE2"/>
<path d="M10.722 10.0003C10.722 9.60296 10.3997 9.2802 10.0024 9.28002C9.60495 9.28002 9.28212 9.60285 9.28212 10.0003C9.2823 10.3976 9.60506 10.7199 10.0024 10.7199C10.3996 10.7197 10.7218 10.3975 10.722 10.0003ZM13.3355 10.0003C13.3353 11.8412 11.8433 13.3332 10.0024 13.3334C8.16136 13.3334 6.66881 11.8413 6.66862 10.0003C6.66862 8.15915 8.16125 6.66653 10.0024 6.66653C11.8434 6.66671 13.3355 8.15926 13.3355 10.0003Z" fill="#A4BEE2"/>
</svg>
