<svg width="16" height="16" viewBox="0 0 16 16" fill="none" xmlns="http://www.w3.org/2000/svg">
<path d="M8.0512 12.4448C7.4752 12.4448 6.9952 11.9712 6.9888 11.3952V9.55841C6.6496 9.52001 6.3168 9.4624 5.984 9.3856L5.3504 11.1072C5.1904 11.5232 4.7936 11.7984 4.352 11.7984C4.2304 11.7984 4.1024 11.7728 3.9808 11.728C3.7184 11.632 3.5072 11.44 3.3856 11.1776C3.264 10.9216 3.2576 10.6336 3.36 10.3648L3.9936 8.6432C3.6992 8.496 3.4112 8.3296 3.136 8.1504L1.984 9.5648C1.7856 9.8144 1.4848 9.9552 1.1648 9.9552C0.9216 9.9552 0.6848 9.872 0.4928 9.712C0.2752 9.5328 0.1408 9.28321 0.1088 9.00161C0.0768 8.72001 0.1664 8.4448 0.3456 8.2272L1.4976 6.81921C0.6016 5.92321 0.1536 5.14881 0.1472 5.14241C0.0512 4.96961 0 4.79041 0 4.60481C0 4.23361 0.2112 3.86881 0.5248 3.68961C0.672 3.60641 0.8448 3.56161 1.0176 3.56161C1.376 3.56161 1.7216 3.74081 1.9456 4.02881C3.3856 5.71841 4.8704 6.78721 5.7024 7.08801C6.2528 7.28641 6.8224 7.39521 6.8288 7.39521C7.2128 7.46561 7.6032 7.49761 8 7.49761C9.1328 7.43361 10.7776 7.11361 12.3072 5.94241C12.9856 5.42401 13.568 4.79041 14.0352 4.05441C14.3232 3.72161 14.6752 3.54881 15.0336 3.54881C15.2256 3.54881 15.4048 3.60001 15.5584 3.70241C15.968 3.97121 16 4.49601 16 4.60481C16 4.97601 15.8336 5.24481 15.7312 5.37281C15.5904 5.57121 15.424 5.78241 15.2448 6.00641C15.0336 6.26241 14.8096 6.51201 14.5792 6.74881L15.7504 8.1504C16.1216 8.5984 16.064 9.26401 15.6224 9.64161C15.4304 9.80161 15.1872 9.8912 14.9376 9.8912C14.624 9.8912 14.3296 9.75041 14.1248 9.50721L12.9536 8.1056C12.6784 8.2912 12.3968 8.4576 12.1088 8.6048L12.7616 10.32C12.9664 10.864 12.6912 11.4784 12.1536 11.6896C12.0256 11.7344 11.8976 11.76 11.776 11.76C11.328 11.76 10.944 11.4912 10.784 11.0752L10.1312 9.3664C9.792 9.4496 9.4528 9.5136 9.1136 9.552V11.3888C9.1264 11.6704 9.0176 11.9392 8.8192 12.1376C8.6208 12.336 8.352 12.4512 8.0704 12.4512L8.0512 12.4448Z" fill="#A4BEE2"/>
</svg>
