<svg width="20" height="20" viewBox="0 0 20 20" fill="none" xmlns="http://www.w3.org/2000/svg">
<path d="M10.064 15.556C9.344 15.556 8.744 14.964 8.736 14.244V11.948C8.312 11.9 7.896 11.828 7.48 11.732L6.688 13.884C6.488 14.404 5.992 14.748 5.44 14.748C5.288 14.748 5.128 14.716 4.976 14.66C4.648 14.54 4.384 14.3 4.232 13.972C4.08 13.652 4.072 13.292 4.2 12.956L4.992 10.804C4.624 10.62 4.264 10.412 3.92 10.188L2.48 11.956C2.232 12.268 1.856 12.444 1.456 12.444C1.152 12.444 0.856 12.34 0.616 12.14C0.344 11.916 0.176 11.604 0.136 11.252C0.096 10.9 0.208 10.556 0.432 10.284L1.872 8.52401C0.752 7.40401 0.192 6.43601 0.184 6.42801C0.064 6.21201 0 5.98801 0 5.75601C0 5.29201 0.264 4.83601 0.656 4.61201C0.84 4.50801 1.056 4.45201 1.272 4.45201C1.72 4.45201 2.152 4.67601 2.432 5.03601C4.232 7.14801 6.088 8.48401 7.128 8.86001C7.816 9.10801 8.528 9.24401 8.536 9.24401C9.016 9.33201 9.504 9.37201 10 9.37201C11.416 9.29201 13.472 8.89201 15.384 7.42801C16.232 6.78001 16.96 5.98801 17.544 5.06801C17.904 4.65201 18.344 4.43601 18.792 4.43601C19.032 4.43601 19.256 4.50001 19.448 4.62801C19.96 4.96401 20 5.62001 20 5.75601C20 6.22001 19.792 6.55601 19.664 6.71601C19.488 6.96401 19.28 7.22801 19.056 7.50801C18.792 7.82801 18.512 8.14001 18.224 8.43601L19.688 10.188C20.152 10.748 20.08 11.58 19.528 12.052C19.288 12.252 18.984 12.364 18.672 12.364C18.28 12.364 17.912 12.188 17.656 11.884L16.192 10.132C15.848 10.364 15.496 10.572 15.136 10.756L15.952 12.9C16.208 13.58 15.864 14.348 15.192 14.612C15.032 14.668 14.872 14.7 14.72 14.7C14.16 14.7 13.68 14.364 13.48 13.844L12.664 11.708C12.24 11.812 11.816 11.892 11.392 11.94V14.236C11.408 14.588 11.272 14.924 11.024 15.172C10.776 15.42 10.44 15.564 10.088 15.564L10.064 15.556Z" fill="#A4BEE2"/>
</svg>
