<svg width="24" height="24" viewBox="0 0 24 24" fill="none" xmlns="http://www.w3.org/2000/svg">
<path d="M1.65741 23.7106C1.24941 23.8737 0.455463 24.178 0.135678 23.8628C-0.117945 23.6128 0.0474612 23.0912 0.124651 22.8412C0.764221 20.7764 1.98823 17.3639 2.13158 16.9727C6.7409 12.4409 11.3502 7.90906 15.9595 3.37724L20.6681 7.97427L7.29225 21.461C5.0317 22.3739 3.13504 23.1238 1.65741 23.7106ZM2.52855 22.3087L5.99105 20.8633C5.79257 20.3743 5.35148 19.4723 4.41418 18.7115C3.92899 18.3203 3.45483 18.0812 3.07991 17.9399C2.61677 19.1245 2.16466 20.3199 1.70152 21.5045L2.52855 22.2978V22.3087Z" fill="#A4BEE2"/>
<path d="M23.3477 5.30082C22.8294 5.88767 22.278 6.35498 21.7377 6.8875L17.0733 2.27961L18.7825 0.616855C19.6977 -0.274293 21.1643 -0.143881 22.1347 0.649458C22.6089 1.09503 23.0389 1.508 23.4579 1.99705C24.1857 2.98601 24.2078 4.32273 23.3587 5.28995L23.3477 5.30082Z" fill="#A4BEE2"/>
</svg>
