<svg width="20" height="20" viewBox="0 0 20 20" fill="none" xmlns="http://www.w3.org/2000/svg">
<path d="M1.38118 19.7589C1.04118 19.8947 0.379552 20.1483 0.113065 19.8857C-0.0982874 19.6774 0.039551 19.2427 0.103876 19.0344C0.636851 17.3136 1.65686 14.4699 1.77632 14.1439C5.61741 10.3674 9.45851 6.59088 13.2996 2.81437L17.2234 6.64522L6.07687 17.8842C4.19308 18.6449 2.61254 19.2698 1.38118 19.7589ZM2.10713 18.5906L4.99255 17.3861C4.82714 16.9786 4.45957 16.2269 3.67849 15.5929C3.27416 15.2669 2.87902 15.0677 2.56659 14.9499C2.18064 15.9371 1.80388 16.9333 1.41794 17.9204L2.10713 18.5815V18.5906Z" fill="#A4BEE2"/>
<path d="M19.4564 4.41735C19.0245 4.90639 18.565 5.29582 18.1148 5.73958L14.2277 1.89967L15.6521 0.514046C16.4148 -0.228578 17.6369 -0.119901 18.4456 0.541215C18.8407 0.912527 19.1991 1.25667 19.5483 1.66421C20.1548 2.48834 20.1732 3.60227 19.4656 4.40829L19.4564 4.41735Z" fill="#A4BEE2"/>
</svg>
