<svg width="24" height="24" viewBox="0 0 24 24" fill="none" xmlns="http://www.w3.org/2000/svg">
<path d="M12.0025 4.63599C15.7716 4.63599 18.6188 6.21898 20.5111 7.79619C22.3903 9.36247 23.391 10.9714 23.5289 11.2064L24 12.0087L23.5206 12.8068C23.3348 13.1164 19.5189 19.364 12.0025 19.364C4.48603 19.364 0.670121 13.1164 0.484338 12.8068L0 11.9996L0.484338 11.1932C0.66993 10.8839 4.48583 4.63599 12.0025 4.63599ZM12.0025 7.77218C7.6625 7.77219 4.88528 10.5726 3.75217 11.9996C4.88504 13.4264 7.662 16.2278 12.0025 16.2278C16.3435 16.2278 19.1202 13.4255 20.2528 11.9988C20.2431 11.9865 20.2338 11.9731 20.2238 11.9607C19.8301 11.469 19.2549 10.8325 18.5026 10.2055C16.9988 8.95216 14.8379 7.77218 12.0025 7.77218Z" fill="#A4BEE2"/>
<path d="M12.8664 12.0004C12.8664 11.5236 12.4797 11.1362 12.0029 11.136C11.5259 11.136 11.1385 11.5234 11.1385 12.0004C11.1388 12.4772 11.5261 12.8639 12.0029 12.8639C12.4795 12.8637 12.8662 12.477 12.8664 12.0004ZM16.0026 12.0004C16.0024 14.2095 14.212 15.9999 12.0029 16.0001C9.79363 16.0001 8.00257 14.2096 8.00235 12.0004C8.00235 9.79098 9.7935 7.99983 12.0029 7.99983C14.2121 8.00005 16.0026 9.79112 16.0026 12.0004Z" fill="#A4BEE2"/>
</svg>
