<svg width="24" height="24" viewBox="0 0 24 24" fill="none" xmlns="http://www.w3.org/2000/svg">
<path d="M12.0768 18.6672C11.2128 18.6672 10.4928 17.9568 10.4832 17.0928V14.3376C9.9744 14.28 9.4752 14.1936 8.976 14.0784L8.0256 16.6608C7.7856 17.2848 7.1904 17.6976 6.528 17.6976C6.3456 17.6976 6.1536 17.6592 5.9712 17.592C5.5776 17.448 5.2608 17.16 5.0784 16.7664C4.896 16.3824 4.8864 15.9504 5.04 15.5472L5.9904 12.9648C5.5488 12.744 5.1168 12.4944 4.704 12.2256L2.976 14.3472C2.6784 14.7216 2.2272 14.9328 1.7472 14.9328C1.3824 14.9328 1.0272 14.808 0.7392 14.568C0.4128 14.2992 0.2112 13.9248 0.1632 13.5024C0.1152 13.08 0.2496 12.6672 0.5184 12.3408L2.2464 10.2288C0.9024 8.88481 0.2304 7.72321 0.2208 7.71361C0.0768 7.45441 0 7.18561 0 6.90721C0 6.35041 0.3168 5.80321 0.7872 5.53441C1.008 5.40961 1.2672 5.34241 1.5264 5.34241C2.064 5.34241 2.5824 5.61121 2.9184 6.04321C5.0784 8.57761 7.3056 10.1808 8.5536 10.632C9.3792 10.9296 10.2336 11.0928 10.2432 11.0928C10.8192 11.1984 11.4048 11.2464 12 11.2464C13.6992 11.1504 16.1664 10.6704 18.4608 8.91361C19.4784 8.13601 20.352 7.18561 21.0528 6.08161C21.4848 5.58241 22.0128 5.32321 22.5504 5.32321C22.8384 5.32321 23.1072 5.40001 23.3376 5.55361C23.952 5.95681 24 6.74401 24 6.90721C24 7.46401 23.7504 7.86721 23.5968 8.05921C23.3856 8.35681 23.136 8.67361 22.8672 9.00961C22.5504 9.39361 22.2144 9.76801 21.8688 10.1232L23.6256 12.2256C24.1824 12.8976 24.096 13.896 23.4336 14.4624C23.1456 14.7024 22.7808 14.8368 22.4064 14.8368C21.936 14.8368 21.4944 14.6256 21.1872 14.2608L19.4304 12.1584C19.0176 12.4368 18.5952 12.6864 18.1632 12.9072L19.1424 15.48C19.4496 16.296 19.0368 17.2176 18.2304 17.5344C18.0384 17.6016 17.8464 17.64 17.664 17.64C16.992 17.64 16.416 17.2368 16.176 16.6128L15.1968 14.0496C14.688 14.1744 14.1792 14.2704 13.6704 14.328V17.0832C13.6896 17.5056 13.5264 17.9088 13.2288 18.2064C12.9312 18.504 12.528 18.6768 12.1056 18.6768L12.0768 18.6672Z" fill="#A4BEE2"/>
</svg>
