<svg width="16" height="16" viewBox="0 0 16 16" fill="none" xmlns="http://www.w3.org/2000/svg">
<path d="M8.00166 3.09066C10.5144 3.09066 12.4125 4.14599 13.6741 5.19746C14.9268 6.24165 15.594 7.31426 15.6859 7.47096L16 8.0058L15.6804 8.53788C15.5566 8.7443 13.0126 12.9093 8.00166 12.9093C2.99069 12.9093 0.446747 8.74429 0.322892 8.53788L0 7.99973L0.322892 7.46212C0.44662 7.25592 2.99055 3.09066 8.00166 3.09066ZM8.00166 5.18146C5.10833 5.18146 3.25686 7.04839 2.50145 7.99973C3.25669 8.95096 5.108 10.8185 8.00166 10.8185C10.8957 10.8185 12.7468 8.95031 13.5019 7.99917C13.4954 7.99101 13.4892 7.98208 13.4825 7.97378C13.22 7.64597 12.8366 7.22168 12.335 6.80364C11.3325 5.96811 9.89196 5.18146 8.00166 5.18146Z" fill="#A4BEE2"/>
<path d="M8.57762 8.00026C8.57762 7.68237 8.31979 7.42416 8.00193 7.42402C7.68396 7.42402 7.4257 7.68228 7.4257 8.00026C7.42584 8.31811 7.68405 8.57594 8.00193 8.57594C8.3197 8.5758 8.57748 8.31802 8.57762 8.00026ZM10.6684 8.00026C10.6683 9.47298 9.47466 10.6666 8.00193 10.6667C6.52909 10.6667 5.33505 9.47307 5.3349 8.00026C5.3349 6.52732 6.529 5.33322 8.00193 5.33322C9.47475 5.33337 10.6684 6.52741 10.6684 8.00026Z" fill="#A4BEE2"/>
</svg>
