<svg width="16" height="16" viewBox="0 0 16 16" fill="none" xmlns="http://www.w3.org/2000/svg">
<path d="M1.10494 15.8071C0.832942 15.9158 0.303642 16.1186 0.0904519 15.9085C-0.0786299 15.7419 0.0316408 15.3941 0.0831005 15.2275C0.509481 13.8509 1.32548 11.576 1.42105 11.3151C4.49393 8.29392 7.56681 5.27271 10.6397 2.25149L13.7787 5.31618L4.8615 14.3074C3.35447 14.9159 2.09003 15.4159 1.10494 15.8071ZM1.6857 14.8725L3.99404 13.9089C3.86171 13.5828 3.56766 12.9815 2.94279 12.4743C2.61933 12.2135 2.30322 12.0541 2.05327 11.9599C1.74451 12.7497 1.44311 13.5466 1.13435 14.3363L1.6857 14.8652V14.8725Z" fill="#A4BEE2"/>
<path d="M15.5651 3.53388C15.2196 3.92512 14.852 4.23666 14.4918 4.59167L11.3822 1.51974L12.5216 0.411237C13.1318 -0.182862 14.1095 -0.0959208 14.7565 0.432972C15.0726 0.730022 15.3593 1.00534 15.6386 1.33137C16.1238 1.99067 16.1385 2.88182 15.5725 3.52663L15.5651 3.53388Z" fill="#A4BEE2"/>
</svg>
