<svg width="20" height="20" viewBox="0 0 20 20" fill="none" xmlns="http://www.w3.org/2000/svg">
<path d="M1.94471 19.6767C1.55876 19.6767 1.16362 19.5681 0.869569 19.3688C0.456054 19.0881 0.171186 18.6534 0.106862 18.1915C0.0333478 17.6391 0.189566 17.1772 0.62146 16.7606L7.48582 10.0226L0.575514 3.20318C0.226324 2.85904 0.0517258 2.40622 0.0884827 1.92623C0.12524 1.41907 0.400918 0.948141 0.832812 0.631167C1.13606 0.42287 1.47606 0.314194 1.82525 0.314194C2.3766 0.314194 2.94633 0.576829 3.43336 1.05682L10.0129 7.54119L17.015 0.685506C17.3459 0.368532 17.8237 0.314194 18.081 0.314194C18.2832 0.314194 18.4853 0.341363 18.6691 0.395701C19.3675 0.594942 19.7442 1.17455 19.8545 1.60926C19.9648 2.02585 20.0107 2.66885 19.248 3.42053L12.5491 10.0136L19.6156 16.9961C19.9832 17.3674 19.9556 18.0375 19.8086 18.5085C19.6707 18.9613 19.2848 19.3598 18.7977 19.5409C18.5588 19.6315 18.3291 19.6767 18.1086 19.6767C17.594 19.6767 17.0977 19.4413 16.6383 18.9885L10.0312 12.495L3.06579 19.2873C2.79931 19.55 2.40417 19.6858 1.96309 19.6858L1.94471 19.6767Z" fill="#A4BEE2"/>
</svg>
