<svg width="24" height="24" viewBox="0 0 24 24" fill="none" xmlns="http://www.w3.org/2000/svg">
<path d="M2.33364 23.6121C1.8705 23.6121 1.39634 23.4817 1.04347 23.2426C0.547256 22.9057 0.205414 22.3841 0.128225 21.8298C0.0400082 21.1669 0.22747 20.6126 0.745742 20.1127L8.98297 12.0272L0.690608 3.84382C0.271579 3.43085 0.0620618 2.88746 0.10617 2.31148C0.150278 1.70289 0.481092 1.13777 0.999365 0.757401C1.36326 0.507445 1.77126 0.377033 2.19029 0.377033C2.85191 0.377033 3.53559 0.692195 4.12002 1.26818L12.0154 9.04943L20.418 0.822607C20.815 0.442239 21.3884 0.377033 21.6972 0.377033C21.9398 0.377033 22.1824 0.409636 22.4029 0.474842C23.241 0.713931 23.6931 1.40946 23.8254 1.93111C23.9577 2.43102 24.0129 3.20263 23.0976 4.10464L15.0589 12.0163L23.5387 20.3953C23.9798 20.8408 23.9467 21.6451 23.7703 22.2102C23.6049 22.7536 23.1417 23.2317 22.5573 23.4491C22.2706 23.5578 21.9949 23.6121 21.7303 23.6121C21.1127 23.6121 20.5173 23.3295 19.9659 22.7862L12.0375 14.994L3.67894 23.1448C3.35916 23.46 2.88499 23.623 2.35569 23.623L2.33364 23.6121Z" fill="#A4BEE2"/>
</svg>
