<?xml version="1.0" encoding="UTF-8"?>
<svg id="_Слой_2" data-name="Слой 2" xmlns="http://www.w3.org/2000/svg" viewBox="0 0 260.31 135.38">
  <defs>
    <style>
      .cls-1 {
        fill: #e0e5f1;
      }

      .cls-2 {
        fill: #e4e7f1;
      }

      .cls-3 {
        fill: #d69295;
      }

      .cls-4 {
        fill: #1c171d;
      }
    </style>
  </defs>
  <g id="_Слой_1-2" data-name="Слой 1">
    <g>
      <path class="cls-1" d="M241.37,1.29c-1.27,11-3.1,6.41-2.92,5.73.59-2.23.94-4.36,1.12-6.62.04-.47.93-.48,1.13-.26s.73.6.67,1.15Z"/>
      <path class="cls-1" d="M252.19,12.87c.92,1.16-4.6,5.05-5.19,3.85-.5-1.03,2.48-2.8,4.05-4,.41-.31.92-.12,1.13.15Z"/>
      <path class="cls-1" d="M247.52,8.43c-1.09,1.42-2.88,4.43-3.94,3.55-.27-.22-.33-.79,0-1.24l2.48-3.44c.38-.53.93-.66,1.36-.26.33.31.52.84.11,1.38Z"/>
      <g>
        <path class="cls-4" d="M260.22,31.47c-.17-.51-.6-.9-1.4-1.08l-25.65-5.7c-1.29-2.58-1.14-6.25-3.25-8.13l-10.05-8.98c-4.6-.09-9.22-.99-13.72.18-8.02,2.09-15.34,5.55-23.24,8.26l-35.38-1.34c-13-.5-55.53,1.69-67.74,3.54l-39.81,6.03c-1.5.23-2.78.28-4.19-.13L10.27,13.99,0,24.72l18.89,23.81-.15,21.12,12.78,19.53c1.86,2.84,3.71,5.36,5.85,8.01l.57,16.65c-.24,1.42-1.76,2.38-2.34,3.89l6.74,17.63,9.1-4.59,14.87,3.57-.33-7.54,11.83-2.76-3.15-1.32c-8.95-3.76-18.05-6.45-27.54-9.66l.31-15.77,9.69-6.48,17.49,1.06,4.08-1.69,4.94-2.05,8.14,17.24c-.76,1.99-2.5,4.74-.61,5.71l24.07,12.3c.61-1.31.48-2.65.75-4.27l12.2-.2c-2.11-2.44-4.36-4.58-6.9-6.95l8.04-5.25-29.89-5.49-6.98-17.71,21.91-13.5,5.63-6.64,19.5-22.13,45.93-5.13,25.54,6.84c4.32.72,8.82-1.09,13.22-.96l22.62.64c.39-1.74-.04-3.19-.03-4.73l8.95-2.42c1.73-.47,5.22-1.99,4.51-4.02ZM57.27,118.61c4.48,1.51,8.71,2.9,13.36,4.86-2.16.75-4.16,1.12-6.71,1.71-.3,2.04.18,3.97.2,6.44l-12.91-3.11-7.78,3.95-5.45-14.43,2.05-3.49-.64-17.1c1.98.33,3.74.46,5.79.55l-.18,16.49,12.27,4.14ZM97.84,103.05l25.94,4.62-5.9,4.01,5.43,5.17-8.68.36c-.98.04-.62,2.03-1.02,3.09l-20.91-10.78c1.34-5.9,1.94-3.01-1.28-9.91l-5.87-12.57,5.07-2.59,7.23,18.59ZM223.17,24.85l-1.75,15.02c-.77.29-1.91.58-2.5.39-.52-.17-6.39,1.06-7.7.77l-21.96-6.14c-.43-.12-.69-.34-.9-.51l-3.58-.44-46.39,5.2-25.21,28.27c-.27.31-.16.76-.49.97l-7.89,5.16-14.69,8.88-11.51,5.44-4.31,2.04-17.79-1.45-10.95,7.34c-2.24.43-5-.46-7.14-.84-3.59-4.49-6.26-9.27-9.29-13.85l-8.02-12.12.07-21.19-11.6-14.76-6.63-8.18,7.24-7.68c.21-.23.44-.44.71-.41.17.01.36.14.51.3l11.31,4.16c4.44,1.67,8.58,3.62,13.1,5.18,1.24.43,2.83.19,4.18-.01l40.38-6.16,43.22-3.16c8.64-.63,16.76-.68,25.4-.34l34.4,1.35c7.89-2.88,15.3-6.03,23.31-8.3,3.88-1.1,7.87-.05,11.97-.35l9.44,8.31c1.71,1.5,1.7,4.63,2.69,6.73l-7.63.37ZM244.52,40.67l-20.61-.71c-.25-1.24-.15-2.39.33-3.41l20.2,1.63c.2.82.31,1.35.08,2.49ZM244.56,36.11l-20.25-1.31.76-8.1c2.52.19,5.02-.6,7.54-.04l25.6,5.72c-4.56,1.87-9.06,4.02-13.65,3.72Z"/>
        <path class="cls-3" d="M258.22,32.38c-4.56,1.87-9.06,4.02-13.65,3.72l-20.25-1.31.76-8.1c2.51.19,5.01-.6,7.54-.04l25.6,5.72Z"/>
        <path class="cls-2" d="M218.91,40.26c-.52-.17-6.39,1.06-7.7.77l-21.96-6.14c-.43-.12-.69-.34-.9-.51,0-.15-.02-.39.07-.5.77-.88,16.38,1.43,18.87,1.87,1.99.36,10.77,3.11,11.62,4.5Z"/>
        <path class="cls-3" d="M244.52,40.67l-20.61-.71c-.25-1.24-.15-2.39.33-3.41l20.2,1.63c.2.82.31,1.35.08,2.49Z"/>
        <path class="cls-2" d="M113.16,67.42c-.27.31-.16.76-.49.97l-7.89,5.16-14.69,8.88-11.51,5.44-4.31,2.04-17.79-1.45-10.95,7.34c-2.24.43-5-.46-7.14-.84-3.59-4.49-6.26-9.27-9.29-13.85l-8.02-12.12.07-21.19-11.6-14.76-6.63-8.18,7.24-7.68c.21-.23.44-.44.71-.41.17.01.36.14.51.3-.84-.76.46,7.29.8,6.98l14.21,17.35,2.06,24.12c.69.46,1.12,1.34,1.73,1.62,1.92.9,3.21,2.92,4.78,4.11l14.53,11.11c1.07-.06,1.86-.2,2.97-.47l25.18-6.24,34.09-8.45c.66-.16,1.13-.12,1.43.2Z"/>
        <path class="cls-4" d="M217.76,23.91c-.43,1.17-1.55,2.47-3.06,2.41-1.34-.06-2.24-1.26-2.63-2.22-.5-1.23-.48-2.8.62-3.79.96-.87,2.88-.9,4.05-.11,1.29.88,1.47,2.51,1.02,3.72Z"/>
        <g>
          <path class="cls-3" d="M63.93,125.19c-.3,2.04.18,3.97.2,6.44l-12.91-3.11-7.78,3.95-5.45-14.43,2.05-3.49-.64-17.1c1.98.33,3.74.46,5.79.54l-.18,16.49,12.27,4.14c4.48,1.51,8.71,2.9,13.36,4.86-2.16.75-4.16,1.12-6.71,1.71Z"/>
          <path class="cls-3" d="M114.63,117.21c-.99.04-.62,2.02-1.02,3.09l-20.91-10.78c1.34-5.9,1.94-3.01-1.28-9.91l-5.87-12.57,5.07-2.59,7.23,18.59,25.94,4.62-5.9,4.01,5.43,5.17-8.68.36Z"/>
        </g>
      </g>
    </g>
  </g>
</svg>