<?xml version="1.0" encoding="UTF-8"?>
<svg id="_Слой_2" data-name="Слой 2" xmlns="http://www.w3.org/2000/svg" viewBox="0 0 236.13 199">
  <defs>
    <style>
      .cls-1 {
        fill: #d69295;
      }

      .cls-2 {
        fill: #0b0909;
      }

      .cls-3 {
        fill: #e6e7f7;
      }

      .cls-4 {
        fill: #fdfdfd;
      }
    </style>
  </defs>
  <g id="_Слой_1-2" data-name="Слой 1">
    <g>
      <path class="cls-2" d="M107.22,167.9l29.48,5.92c.81,0,1.16.22,1.17.79s-.29.79-.94,1.05c-2.07.83-3.88,1.9-5.82,2.95l6.52,6.06-12.82.22c-.25,1.6-.38,2.91-.86,4.23-2.35-.86-4.32-1.95-6.54-3.04l-20.1-9.92c.04-1.83.71-3.18,1.51-4.78l-7.45-15.08-25.62-1.73-10.39,6.57-.74,15.59,26.71,11.07c1.45.6,2.78,1,4.04,1.96l-11.19,2.14-.15,7.12-15.62-4.19-9.11,3.85-6.6-17.91c.52-1.39,1.95-2.36,2.28-3.66l-.02-16.4c-4.3-4.15-8.15-8.31-11.54-13.11-9.78-13.87-5.31-3.96-10.84-24.31l-15.06-15.1L.05,100.61c-.22-.61.37-1.31.57-1.88,2.57-3.23,5.04-6.37,8.1-9.14l29.77,4.44,51.86-19.92,12.9-5.42c5.79-7.77,11.56-15.26,16.83-23.37,3.01-4.63,6.04-9,8.56-13.84,1.54-2.95,3.96-15.89,7.58-20.76s8.69-8.95,14.82-10.27c5.57-1.19,11.23.27,16.69.83l7.64,7.06,16.43-3.58,13.93-3.26c.85-.2,1.55.78,1.76,1.27,1.23,2.93-8.83,9.85-11.34,11.87.43,1.06,1.38,2.01.97,2.91-.52,1.15-2.01,1.54-3.24,2.34,1.63.69,4.42,1.26,3.68,3.77-.24.82-1.15,1.07-2.16,1.31l-8.82,2.11-14.88,3.48c-5.67,4.27-6.39,5.6-13.13,8.95-1.79.89-3.11,2.07-3.92,3.79-2.04,3.65-3.34,7.47-4.35,11.51l-4.15,16.55c10.42-4.16,20.01-8.74,29.37-14.15,7.5-4.34,14.07-9.23,20.2-15.07,3.93-3.74,8.06-7.11,11.15-11.51,3.79-5.4,6.55-11.14,9.56-16.92,1.78-3.42,3.78-6.59,6.6-9.29.78-.75,1.85-1.05,2.88-1.02,6.7.23,3.49,19.9,1.81,24.39,1.83.9,3.15,2.05,4.36,3.55,3.33,4.14,5.74,8.1,2.65,13.19l-7.3,12.01c-2.22,3.65-4.48,7.05-7.43,10.28-8.14,8.89-18.04,15.94-29.25,21.34-14.24,5.36-28.47,9.41-44.22,9.18-4.54,12.45-9.29,24.54-14.96,36.62l-9.66,6.17-20.81,11.88,6.16,15.86ZM9.52,92.15c-.51.2-.92.62-1.33,1.1l-5.64,6.71,13.57,13.76,8.7,8.48c.31,1.91,3.59,14.6,4.05,15.36,2.11,3.48,4.83,6.47,7.23,9.81,3.05,4.24,6.54,7.92,10.39,11.58l7.41.38,11.26-7.07,25.96,1.83,8.42-3.83c3.73-1.7,27.51-15.39,29.8-17.71,1.32-1.33,1.57-3.36,2.3-4.83,3.79-7.63,6.76-15.57,9.77-23.66,1.13-3.04,2.61-5.93,3.19-8.92,15.82.44,30.19-3.34,44.99-8.87,13.37-6.35,27.25-16.86,34.73-29.08l8.25-13.48c.23-.32,1.52-2.2,1.03-4.72-.47-2.42-2.24-3.67-2.59-3.91.33-2.57-1.62-4.84-4.01-4.95-2.21-.1-4.25,1.67-4.44,4.06-.24-.61-.44-1.45-.09-2.18.17-.36.42-.57.51-.65,1.4-1.25,1.86-2.88,2.41-4.37,1.75-4.77,2.1-9.93,2.1-15.15,0-1.45-.31-5.89-1.63-6.23-.43-.11-.95.17-1.32.52-3.17,3.03-5.02,6.66-6.97,10.45-2.92,5.66-5.76,11.24-9.69,16.41-3.78,4.97-8.57,8.9-13.2,13.15-12.56,11.54-30.02,19.94-45.86,26.6-1.24.39-3.43,1.15-4.35,1.86-.73-.02-1.58-.63-1.35-1.51l3.42-13.4c1.4-5.48,2.97-10.68,5.21-15.92.48-1.12.81-2.46,1.69-3.28,2.7-2.51,12.73-6.78,15.31-11.16.21-.09.62-.05.77-.27.17-.26.06-.54-.04-.91l-4.44-15.18c2.75-1.23,5.2-2.15,7.85-3.94-2.09-1.56-3.68-4.16-6.14-5.44-4.59-1.15-9.96-1.93-14.8-.97-5.98,1.18-11.08,5.3-14.13,9.97-3.17,4.86-5.66,17.47-6.7,19.37-5.7,10.4-12.43,19.98-19.56,29.54l-6.57,8.81-28.45,11.62-37.77,14.33-20.37-3.11c-3.05-.47-5.94-1.09-8.84-1ZM180.44,18.07l13.12-4.21c4.15-2.97,8.27-5.93,11.65-10.05l-30.55,6.74c-2.22,1.37-4.41,2.29-6.95,3.45l2.35,7.68,10.38-3.62ZM193.87,17.46c.43-.29.61-.78.5-1.04-.18-.42-.61-.65-1.18-.57-6.79,2.46-13.48,4.08-20.18,6.7,6.28.04,15.99-1.77,20.86-5.09ZM171.84,28.37l23.22-5.54c-1.31-1.47-3.24-1.44-4.94-1.16-6.3,1.03-13.2,2.55-19.35,2.37l1.08,4.33ZM132.32,182.71c-1.67-1.63-3.37-2.84-5.32-4.39,1.68-1.46,3.76-1.75,5.7-3.12l-12.78-2.51-14.36-2.93-6.46-16.98c-2.16.78-3.84,1.68-5.73,2.63l7.88,16.02c-.56,1.28-1.19,2.31-1.18,3.6l22.1,10.95.62-3.19,9.53-.1ZM71.78,190.15c2.44-.53,4.55-.57,6.94-1.34l-26.31-10.63c-.24-.93-.19-1.79-.14-2.75l.74-13.96c-1.91-.2-3.76-.36-5.67-.33l-.02,16.73c-.69,1.12-1.57,1.99-2.03,3.18l5.24,14.65,7.73-3.18,13.49,3.69.04-6.06Z"/>
      <path class="cls-4" d="M168.72,29.33c-.24-.44-1-.55-1.71-.5-5.67.41-9.26,4.82-12.48,8.68-.76.91-1.19,1.98-1.11,2.98-.88.82-1.21,2.15-1.69,3.28-2.24,5.24-3.81,10.44-5.21,15.92l-3.42,13.4c-.22.88.63,1.49,1.35,1.51-.23.18-.65.7-.64,1.11.27,6.6.11,13.04.77,19.44-.58,2.98-2.06,5.88-3.19,8.92-3.02,8.09-5.99,16.03-9.77,23.66-.94-.24-1.85-.02-2.91.45l-46.85,12.79-23.9,6c-7.22-4.15-13.6-8.62-20.13-13.29l-1.81-5.63-4.34-14.12-9.49-7.82c-3.37-2.78-6.39-5.67-10.03-8.2l-1.3-3.73c-.3-.88-.65-1.55-1.36-2.04,2.9-.09,5.78.53,8.84,1l20.37,3.11,37.77-14.33,28.45-11.62,6.57-8.81c7.13-9.56,13.86-19.15,19.56-29.54,1.04-1.9,3.54-14.51,6.7-19.37,3.04-4.67,8.15-8.79,14.13-9.97,4.85-.96,10.21-.18,14.8.97,2.46,1.28,4.05,3.88,6.14,5.44-2.65,1.8-5.1,2.71-7.85,3.94l4.44,15.18c.11.37.22.65.04.91-.15.22-.56.19-.77.27ZM159.33,14.68c0-1.91-1.68-3.45-3.75-3.45s-3.75,1.54-3.75,3.45,1.68,3.45,3.75,3.45,3.75-1.54,3.75-3.45Z"/>
      <path class="cls-3" d="M231.93,35.52c2.04,2.32,2.3,5.46.62,8.2l-8.25,13.48c-7.48,12.22-21.36,22.73-34.73,29.08-14.79,5.53-29.17,9.31-44.99,8.87-.66-6.39-.5-12.84-.77-19.44-.02-.42.4-.94.64-1.11.92-.71,3.1-1.47,4.35-1.86.66.63,1.48.07,2.37-.18l29.33-8.19,34.34-9.49,6.26-5.48c4.5-3.94,8.63-8.93,9.74-14.58.66.29.75.64,1.1.71Z"/>
      <path class="cls-3" d="M131.62,127.72c-.73,1.48-.98,3.5-2.3,4.83-2.29,2.32-26.07,16.01-29.8,17.71l-8.42,3.83-25.96-1.83-11.26,7.07-7.41-.38c-3.85-3.66-7.34-7.35-10.39-11.58-2.4-3.34-5.12-6.33-7.23-9.81-.46-.76-3.74-13.45-4.05-15.36l-8.7-8.48-13.57-13.76,5.64-6.71c.41-.49.82-.9,1.33-1.1.71.49,1.05,1.16,1.36,2.04l1.3,3.73c3.64,2.52,6.66,5.42,10.03,8.2l9.49,7.82,4.34,14.12,1.81,5.63c6.53,4.67,12.91,9.14,20.13,13.29l23.9-6,46.85-12.79c1.06-.48,1.97-.69,2.91-.45Z"/>
      <path class="cls-4" d="M224.73,30.4c.35.29.95-.28,2.26-.27.06,0,1.56.03,2.84.95,2.03,1.45,2.1,4.1,2.1,4.44-1.16,2.16-2.69,4.64-4.69,7.22-2.11,2.73-4.25,4.93-6.14,6.65l-6.26,5.48-34.34,9.49-29.33,8.19c-.89.25-1.71.81-2.37.18,15.84-6.66,33.3-15.06,45.86-26.6,4.63-4.25,9.42-8.18,13.2-13.15,3.93-5.17,6.78-10.74,9.69-16.41,1.95-3.79,3.8-7.41,6.97-10.45.23-.22.77-.64,1.32-.52,2.13.44,2.06,8.37,2.05,9.26-.05,3.4-.1,6.77-1.71,10.71-.8,1.95-2.1,4.31-1.46,4.83ZM221.41,44.12c.4-.23.09-.92-.16-1.1-1.05-.76-7.06,2.31-6.4,3.43.39.66,5.94-1.98,6.55-2.33Z"/>
      <path class="cls-1" d="M71.78,190.15l-.04,6.06-13.49-3.69-7.73,3.18-5.24-14.65c.46-1.19,1.34-2.05,2.03-3.18l.02-16.73c1.92-.04,3.76.12,5.67.33l-.74,13.96c-.05.96-.1,1.82.14,2.75l26.31,10.63c-2.39.77-4.5.81-6.94,1.34Z"/>
      <path class="cls-1" d="M132.32,182.71l-9.53.1-.62,3.19-22.1-10.95c-.01-1.29.62-2.32,1.18-3.6l-7.88-16.02c1.9-.95,3.57-1.85,5.73-2.63l6.46,16.98,14.36,2.93,12.78,2.51c-1.94,1.37-4.02,1.66-5.7,3.12,1.95,1.54,3.65,2.76,5.32,4.39Z"/>
      <path class="cls-1" d="M180.44,18.07l-10.38,3.62-2.35-7.68c2.54-1.16,4.72-2.08,6.95-3.45l30.55-6.74c-3.38,4.11-7.49,7.08-11.65,10.05l-13.12,4.21Z"/>
      <path class="cls-1" d="M171.84,28.37l-1.08-4.33c6.15.19,13.05-1.33,19.35-2.37,1.71-.28,3.63-.32,4.94,1.16l-23.22,5.54Z"/>
      <path class="cls-3" d="M168.72,29.33c-2.58,4.38-12.61,8.65-15.31,11.16-.07-1.01.36-2.07,1.11-2.98,3.22-3.86,6.82-8.27,12.48-8.68.71-.05,1.47.06,1.71.5Z"/>
      <path class="cls-1" d="M193.87,17.46c-4.87,3.32-14.58,5.13-20.86,5.09,6.69-2.61,13.39-4.24,20.18-6.7.57-.08,1,.15,1.18.57.11.26-.07.74-.5,1.04Z"/>
      <ellipse class="cls-2" cx="155.57" cy="14.68" rx="3.75" ry="3.45"/>
      <path class="cls-2" d="M218.49,35.31c.45.19.56.91.56,1.28-.02,2.41-4.85,4.31-5.36,3.67-.57-.71,3.39-5.55,4.8-4.95Z"/>
      <path class="cls-2" d="M221.41,44.12c-.62.35-6.16,2.99-6.55,2.33-.66-1.12,5.35-4.19,6.4-3.43.25.18.56.87.16,1.1Z"/>
    </g>
  </g>
</svg>